<svg width="40" height="41" viewBox="0 0 40 41" fill="none" xmlns="http://www.w3.org/2000/svg">
<g clip-path="url(#clip0_34_998)">
<path d="M20 12.0026C10.8 12.0026 3.33334 15.736 3.33334 20.336C3.33334 24.0693 8.23334 27.2193 15 28.286V33.6693L21.6667 27.0026L15 20.336V24.886C9.75001 23.9526 6.66668 21.7193 6.66668 20.336C6.66668 18.5693 11.7333 15.336 20 15.336C28.2667 15.336 33.3333 18.5693 33.3333 20.336C33.3333 21.5526 30.9 23.486 26.6667 24.5526V27.9693C32.55 26.686 36.6667 23.7526 36.6667 20.336C36.6667 15.736 29.2 12.0026 20 12.0026Z" fill="white"/>
</g>
<defs>
<clipPath id="clip0_34_998">
<rect width="40" height="40" fill="white" transform="translate(0 0.335968)"/>
</clipPath>
</defs>
</svg>
